HIERARCHY
ROOT Hips
{
	OFFSET 0.000000 0.000000 0.000000
	CHANNELS 6 Xposition Yposition Zposition Zrotation Yrotation Xrotation 
	JOINT LeftUpLeg_virtual
	{
		OFFSET 0.000000 0.000000 0.000000
		CHANNELS 3 Zrotation Yrotation Xrotation
		JOINT LeftUpLeg
		{
			OFFSET 10.205400 -3.823500 0.155100
			CHANNELS 3 Zrotation Yrotation Xrotation
			JOINT LeftLeg
			{
				OFFSET 0.708757 -12.982077 0.567790
				CHANNELS 3 Zrotation Yrotation Xrotation
				JOINT LeftFoot
				{
					OFFSET -0.708756 -10.717838 -2.184338
					CHANNELS 3 Zrotation Yrotation Xrotation
					JOINT LeftToeBase
					{
						OFFSET 0.108149 -7.191104 7.560241
						CHANNELS 3 Zrotation Yrotation Xrotation
						End Site
						{
							OFFSET 0.000000 0.000000 0.000000
						}
					}
				}
			}
		}
	}
	JOINT RightUpLeg_virtual
	{
		OFFSET 0.000000 0.000000 0.000000
		CHANNELS 3 Zrotation Yrotation Xrotation
		JOINT RightUpLeg
		{
			OFFSET -10.205400 -3.823500 0.005500
			CHANNELS 3 Zrotation Yrotation Xrotation
			JOINT RightLeg
			{
				OFFSET -0.708756 -12.982134 0.610632
				CHANNELS 3 Zrotation Yrotation Xrotation
				JOINT RightFoot
				{
					OFFSET 0.708754 -10.717769 -1.945823
					CHANNELS 3 Zrotation Yrotation Xrotation
					JOINT RightToeBase
					{
						OFFSET -0.108140 -7.191069 7.372968
						CHANNELS 3 Zrotation Yrotation Xrotation
						End Site
						{
							OFFSET 0.000000 0.000000 0.000000
						}
					}
				}
			}
		}
	}
	JOINT Spine_virtual
	{
		OFFSET 0.000000 0.000000 0.000000
		CHANNELS 3 Zrotation Yrotation Xrotation
		JOINT Spine
		{
			OFFSET 0.000000 6.876099 0.125700
			CHANNELS 3 Zrotation Yrotation Xrotation
			JOINT Spine1
			{
				OFFSET 0.000000 8.022060 0.146608
				CHANNELS 3 Zrotation Yrotation Xrotation
				JOINT Spine2
				{
					OFFSET 0.000000 9.168068 0.167552
					CHANNELS 3 Zrotation Yrotation Xrotation
					JOINT Neck_virtual
					{
						OFFSET 0.000000 0.000000 0.000000
						CHANNELS 3 Zrotation Yrotation Xrotation
						JOINT Neck
						{
							OFFSET 0.000000 10.314075 0.188496
							CHANNELS 3 Zrotation Yrotation Xrotation
							JOINT Head
							{
								OFFSET 0.000000 7.643700 -2.377400
								CHANNELS 3 Zrotation Yrotation Xrotation
								End Site
								{
									OFFSET 0.000000 0.000000 0.000000
								}
							}
						}
					}
					JOINT LeftShoulder_virtual
					{
						OFFSET 0.000000 0.000000 0.000000
						CHANNELS 3 Zrotation Yrotation Xrotation
						JOINT LeftShoulder
						{
							OFFSET 4.392200 8.824978 0.174984
							CHANNELS 3 Zrotation Yrotation Xrotation
							JOINT LeftArm
							{
								OFFSET 8.771219 -2.981674 -0.026999
								CHANNELS 3 Zrotation Yrotation Xrotation
								JOINT LeftForeArm
								{
									OFFSET 8.512804 0.000000 -0.000000
									CHANNELS 3 Zrotation Yrotation Xrotation
									JOINT LeftHand
									{
										OFFSET 18.484802 0.000000 -0.000000
										CHANNELS 3 Zrotation Yrotation Xrotation
										End Site
										{
											OFFSET 0.000000 0.000000 0.000000
										}
									}
								}
							}
						}
					}
					JOINT RightShoulder_virtual
					{
						OFFSET 0.000000 0.000000 0.000000
						CHANNELS 3 Zrotation Yrotation Xrotation
						JOINT RightShoulder
						{
							OFFSET -4.392200 8.824993 0.141379
							CHANNELS 3 Zrotation Yrotation Xrotation
							JOINT RightArm
							{
								OFFSET -8.771282 -2.981682 -0.094208
								CHANNELS 3 Zrotation Yrotation Xrotation
								JOINT RightForeArm
								{
									OFFSET -8.494598 0.000000 0.000000
									CHANNELS 3 Zrotation Yrotation Xrotation
									JOINT RightHand
									{
										OFFSET -18.483803 0.000000 0.000001
										CHANNELS 3 Zrotation Yrotation Xrotation
										End Site
										{
											OFFSET 0.000000 0.000000 0.000000
										}
									}
								}
							}
						}
					}
				}
			}
		}
	}
}
MOTION
Frames: 8
Frame Time: 0.033333
-1.024574 35.912083 15.776704 179.936921 4.940065 -179.777505 -3.198373 -3.871708 9.680935 -16.160977 2.101854 -17.043465 17.579642 5.223851 21.629256 1.275316 -3.386369 3.789236 0.000000 0.000000 0.000000 1.206454 -0.831904 7.664481 1.660946 -0.303550 -11.068660 -8.032696 -0.741220 16.403978 6.798028 3.237695 5.792597 0.000000 0.000000 0.000000 1.123672 0.455971 -3.331320 -4.377067 3.001257 -7.166085 0.774635 -3.610599 4.032853 -0.008265 -0.001929 0.075153 0.594743 -2.166165 6.768333 0.263716 1.609683 16.755832 0.000000 0.000000 0.000000 2.031719 -1.262030 3.576895 -7.870582 0.884847 -6.409791 -9.111971 16.140915 -40.537121 -0.250813 -45.544804 -2.392949 0.000000 0.000000 0.000000 -1.339960 -0.473954 3.171685 20.595143 -4.101901 -11.633044 12.594529 -15.580244 -47.691376 0.347815 30.971506 3.392721 0.000000 0.000000 0.000000 
-1.016491 35.905724 15.773345 -179.966892 5.052758 -179.627965 -3.138120 -4.002229 9.844815 -15.927827 1.444387 -16.802848 17.735288 4.547023 21.699716 1.327783 -3.338314 3.787393 0.000000 0.000000 0.000000 1.319492 -0.711551 7.667256 1.713682 -0.665355 -11.086177 -8.078796 -1.052753 16.601555 6.714401 3.178688 5.982275 0.000000 0.000000 0.000000 1.162344 0.366354 -3.379418 -4.335726 3.121642 -7.228171 0.804063 -3.538095 3.974935 0.013401 0.084150 0.032936 0.562445 -2.098820 6.884742 0.264706 1.583889 16.820890 0.000000 0.000000 0.000000 1.989842 -1.285323 3.668688 -7.888996 0.845632 -6.400574 -9.063005 16.075122 -40.444313 -0.176199 -45.521517 -2.458840 0.000000 0.000000 0.000000 -1.414363 -0.537592 3.273924 20.601766 -4.123504 -11.632988 12.583535 -15.606031 -47.664209 0.321027 31.097100 3.387460 0.000000 0.000000 0.000000 
-1.007752 35.903164 15.757172 179.947112 4.827621 -179.579142 -3.218620 -4.201123 9.867311 -15.949166 1.388395 -16.883172 17.811940 4.459106 21.672865 1.302646 -3.353648 3.803758 0.000000 0.000000 0.000000 1.233466 -0.857535 7.726278 1.708184 -0.655159 -11.170652 -8.049927 -1.213313 16.518307 6.768967 3.224867 5.973271 0.000000 0.000000 0.000000 1.105991 0.441396 -3.380540 -4.336511 3.015870 -7.214252 0.778560 -3.604946 4.022534 -0.011083 0.000981 0.029478 0.605244 -2.152466 6.862376 0.249998 1.541390 16.764457 0.000000 0.000000 0.000000 2.041619 -1.279741 3.641680 -7.905718 0.907298 -6.444150 -9.080840 15.981335 -40.303604 -0.175490 -45.502228 -2.468038 0.000000 0.000000 0.000000 -1.357453 -0.528507 3.314599 20.624087 -4.142798 -11.613883 12.601025 -15.738825 -47.806495 0.350669 31.311445 3.429413 0.000000 0.000000 0.000000 
-0.993781 35.901646 15.741770 179.954352 4.877336 -179.593035 -3.209672 -4.104744 9.942770 -15.965057 1.311992 -16.885110 17.863622 4.443869 21.645112 1.277199 -3.361335 3.821666 0.000000 0.000000 0.000000 1.230932 -0.780350 7.782907 1.709505 -0.646472 -11.196835 -7.951397 -1.226148 16.608271 6.653187 3.089656 5.948881 0.000000 0.000000 0.000000 1.097148 0.466736 -3.306041 -4.291934 3.023749 -7.276320 0.772118 -3.592874 3.973883 -0.006056 0.015235 0.059398 0.582244 -2.135353 6.855893 0.210634 1.460741 16.806266 0.000000 0.000000 0.000000 2.041527 -1.232599 3.677450 -7.942420 1.001668 -6.554821 -9.027566 15.728136 -40.029410 -0.196248 -45.444944 -2.426772 0.000000 0.000000 0.000000 -1.378597 -0.499267 3.346720 20.685993 -4.164754 -11.587973 12.607606 -15.807590 -47.867721 0.277322 31.515763 3.364735 0.000000 0.000000 0.000000 
-0.980404 35.900261 15.722129 179.965485 4.766880 -179.625123 -3.191419 -4.186966 9.950295 -15.975198 1.228326 -16.856200 17.899400 4.343501 21.618531 1.268493 -3.349039 3.860152 0.000000 0.000000 0.000000 1.242337 -0.838229 7.834049 1.712753 -0.752942 -11.178425 -7.900628 -1.243403 16.620671 6.682501 3.069004 5.880403 0.000000 0.000000 0.000000 1.086142 0.464311 -3.251386 -4.219984 3.018937 -7.336713 0.762162 -3.585521 4.006177 0.002759 0.021878 0.075447 0.566204 -2.130855 6.947386 0.182331 1.363321 16.924283 0.000000 0.000000 0.000000 2.032229 -1.278671 3.768473 -7.949237 1.006342 -6.567450 -8.997957 15.549989 -39.870464 -0.231395 -45.392792 -2.336546 0.000000 0.000000 0.000000 -1.383238 -0.565825 3.391244 20.775832 -4.271596 -11.472559 12.649393 -15.946461 -48.005445 0.281839 31.696873 3.370842 0.000000 0.000000 0.000000 
-0.968949 35.897839 15.702954 -179.962780 4.799462 -179.585686 -3.097936 -4.191976 9.902693 -15.983087 1.154658 -16.789853 17.915590 4.337314 21.652830 1.287292 -3.306668 3.868675 0.000000 0.000000 0.000000 1.352020 -0.810371 7.793534 1.663948 -0.748325 -11.145550 -7.764668 -1.106344 16.609304 6.633403 2.936915 5.863623 0.000000 0.000000 0.000000 1.129926 0.364322 -3.228986 -4.109421 3.106673 -7.446149 0.762073 -3.519026 4.021464 0.017920 0.086287 0.091614 0.515690 -2.087195 7.002732 0.173985 1.249179 16.993301 0.000000 0.000000 0.000000 1.972927 -1.339042 3.830809 -7.937859 1.058198 -6.603493 -8.967613 15.377623 -39.575858 -0.083817 -45.444623 -2.414939 0.000000 0.000000 0.000000 -1.437937 -0.567390 3.391225 20.860345 -4.319281 -11.387103 12.698433 -16.106069 -48.362398 0.450206 31.906658 3.505375 0.000000 0.000000 0.000000 
-0.960614 35.894939 15.685349 179.970608 4.899724 -179.565318 -3.158157 -4.214999 9.822135 -15.992768 1.066836 -16.715257 17.968358 4.361210 21.693132 1.324605 -3.249173 3.915872 0.000000 0.000000 0.000000 1.280755 -0.801847 7.714435 1.681498 -0.784223 -11.071948 -7.778578 -1.169031 16.626011 6.710531 2.947260 5.825179 0.000000 0.000000 0.000000 1.119473 0.450130 -3.242392 -4.169115 3.059375 -7.555579 0.763007 -3.564657 4.073177 0.047242 0.024538 0.075445 0.461891 -2.058531 7.004429 0.175926 1.097783 16.989368 0.000000 0.000000 0.000000 1.925097 -1.274681 3.837271 -7.913062 1.200722 -6.577923 -9.036924 15.266849 -39.336897 0.058231 -45.502628 -2.444514 0.000000 0.000000 0.000000 -1.489383 -0.508674 3.576473 20.988884 -4.335340 -11.342327 12.783064 -16.218146 -48.631005 0.566279 32.039072 3.563423 0.000000 0.000000 0.000000 
-0.960897 35.894299 15.676566 -179.964037 4.991797 -179.598281 -3.108856 -4.254527 9.765139 -15.949035 0.882991 -16.612885 18.044742 4.544049 21.814333 1.319461 -3.235664 3.951707 0.000000 0.000000 0.000000 1.342775 -0.863465 7.646694 1.653806 -0.837770 -10.955490 -7.725078 -1.046831 16.638194 6.782634 2.923103 5.772271 0.000000 0.000000 0.000000 1.077280 0.406330 -3.199906 -3.955583 3.113037 -7.629417 0.701108 -3.539204 4.126112 0.003163 0.023340 0.061386 0.435158 -1.986520 7.143233 0.244180 0.977748 17.226820 0.000000 0.000000 0.000000 1.890626 -1.216667 3.934022 -7.821487 1.296473 -6.692096 -9.247519 15.178665 -39.125134 -0.009649 -45.581609 -2.209134 0.000000 0.000000 0.000000 -1.536121 -0.495333 3.608796 21.119426 -4.372683 -11.200305 12.899196 -16.308315 -48.924997 0.656179 32.209625 3.562591 0.000000 0.000000 0.000000 
